<?xml version="1.0" standalone="no"?>
<!DOCTYPE svg PUBLIC "-//W3C//DTD SVG 20010904//EN"
 "http://www.w3.org/TR/2001/REC-SVG-20010904/DTD/svg10.dtd">
<svg version="1.0" xmlns="http://www.w3.org/2000/svg"
 width="260.000000pt" height="260.000000pt" viewBox="0 0 260.000000 260.000000"
 preserveAspectRatio="xMidYMid meet">
<metadata>
Created by potrace 1.14, written by Peter Selinger 2001-2017
</metadata>
<g transform="translate(0.000000,260.000000) scale(0.100000,-0.100000)"
fill="#000000" stroke="none">
<path d="M480 1305 l0 -1076 488 2 c421 1 501 4 593 20 236 40 371 126 460
292 50 92 69 161 76 269 10 163 -32 288 -133 398 -55 59 -155 124 -216 141
-21 5 -38 13 -38 17 0 4 17 16 37 27 60 33 149 126 186 195 47 86 65 159 61
252 -6 174 -93 332 -235 427 -55 37 -173 82 -253 98 -17 3 -255 8 -528 10
l-498 4 0 -1076z m960 810 c134 -23 193 -63 241 -161 29 -59 33 -74 33 -157 0
-72 -5 -102 -21 -138 -42 -94 -135 -158 -258 -178 -33 -5 -197 -10 -366 -10
l-305 -2 0 331 0 331 300 -2 c197 0 327 -6 376 -14z m15 -906 c87 -15 107 -20
144 -35 128 -53 201 -165 205 -314 4 -149 -61 -268 -182 -329 -84 -42 -156
-49 -516 -51 l-342 -1 0 371 0 371 320 -2 c177 0 344 -5 371 -10z"/>
</g>
</svg>
